<svg width="170" height="41" viewBox="0 0 170 41" fill="none" xmlns="http://www.w3.org/2000/svg">
<g clip-path="url(#clip0_1_2611)">
<path d="M57.3108 12.6457C58.1063 12.6457 58.6435 12.5509 59.0809 12.2678C59.5183 11.9841 59.7575 11.4555 59.7575 10.8887C59.7575 10.2835 59.4984 9.7739 59.0809 9.4901C58.6633 9.20707 58.1063 9.11226 57.3108 9.11226H55.3615V12.6457H57.3108ZM52.1992 6.54233H57.4898C59.0412 6.54233 60.2544 6.78846 61.2488 7.46822C62.2432 8.14869 62.9191 9.26351 62.9191 10.7562C62.9191 12.5704 61.8851 13.9495 60.1348 14.5916L64.053 20.2222H60.4334L56.8931 15.0266H55.3615V20.2222H52.1992V6.54233Z" fill="#FEFEF2"/>
<path d="M76.8874 13.3825C76.8874 10.9451 75.0174 9.01801 72.5315 9.01801C70.045 9.01801 68.1757 10.9451 68.1757 13.3825C68.1757 15.82 70.045 17.7471 72.5315 17.7471C75.0174 17.7471 76.8874 15.82 76.8874 13.3825ZM65.0137 13.3825C65.0137 9.39592 68.2552 6.33448 72.5315 6.33448C76.8078 6.33448 80.0494 9.39592 80.0494 13.3825C80.0494 17.3692 76.8078 20.4299 72.5315 20.4299C68.2552 20.4299 65.0137 17.3692 65.0137 13.3825Z" fill="#FEFEF2"/>
<path d="M89.8832 20.4303C85.2695 20.4303 82.0664 17.4072 82.0664 13.4206C82.0664 9.41437 85.2894 6.33484 89.9031 6.33484C91.4344 6.33484 92.8861 6.67506 94.0203 7.27956V10.2462C92.9259 9.50925 91.4741 9.0177 90.0224 9.0177C87.1978 9.0177 85.2489 10.8883 85.2489 13.3634C85.2489 15.8385 87.1581 17.7474 90.1417 17.7474C91.614 17.7474 93.0259 17.2559 94.1396 16.5001V19.4479C92.9464 20.1089 91.3548 20.4303 89.8832 20.4303Z" fill="#FEFEF2"/>
<path d="M97.1172 6.54263H100.279V12.7778L100.319 12.7966L105.47 6.54263H109.189L103.621 13.0804L109.528 20.2226H105.649L100.319 13.5336L100.279 13.5524V20.2226H97.1172V6.54263Z" fill="#FEFEF2"/>
<path d="M115.851 6.54264H119.252L121.56 12.5512C122.037 13.7797 122.515 15.0451 122.952 16.2736H122.991C123.449 15.0263 123.927 13.7985 124.423 12.5324L126.79 6.54264H130.032L124.543 20.2226H121.361L115.851 6.54264Z" fill="#FEFEF2"/>
<path d="M131.961 6.54233H135.123V20.2222H131.961V6.54233Z" fill="#FEFEF2"/>
<path d="M138.586 6.54263H147.476V9.16907H141.749V11.9279H146.681V14.4595H141.749V17.5962H147.695V20.2226H138.586V6.54263Z" fill="#FEFEF2"/>
<path d="M149.336 6.54263H152.658L154.487 12.4187C154.845 13.5712 155.204 14.7997 155.521 15.9522H155.561C155.899 14.7809 156.277 13.5524 156.655 12.3999L158.565 6.54263H160.872L162.761 12.3999C163.139 13.5712 163.517 14.7809 163.855 15.9522H163.894C164.213 14.7997 164.591 13.5336 164.969 12.3623L166.818 6.54263H170L165.565 20.2226H162.224L160.673 15.4041C160.295 14.2517 159.977 13.2317 159.658 12.1357H159.619C159.3 13.2317 158.962 14.3082 158.585 15.4606L157.033 20.2226H153.732L149.336 6.54263Z" fill="#FEFEF2"/>
<path d="M54.7478 30.0503C55.1926 30.0503 55.5155 30.0022 55.7782 29.8293C56.0512 29.6564 56.2024 29.3593 56.2024 29.0135C56.2024 28.6391 56.041 28.3414 55.7782 28.1692C55.5155 27.9963 55.1926 27.958 54.7376 27.958H53.5354V30.0503H54.7478ZM52.2519 26.8919H54.7882C55.5661 26.8919 56.1525 26.9979 56.6471 27.3339C57.1425 27.6603 57.486 28.2264 57.486 28.9654C57.486 29.906 56.8996 30.6262 55.9301 30.8946L58.0518 33.8417H56.5664L54.5761 31.0585H53.5354V33.8417H52.2519V26.8919Z" fill="#80A460"/>
<path d="M61.8496 26.8922H66.215V27.9672H63.1331V29.7242H65.8102V30.77H63.1331V32.7571H66.315V33.8419H61.8496V26.8922Z" fill="#80A460"/>
<path d="M73.9452 33.9475C71.6518 33.9475 70.0352 32.4115 70.0352 30.3861C70.0352 28.3607 71.6312 26.7865 73.9452 26.7865C74.7233 26.7865 75.4501 26.9594 76.0262 27.2759V28.5239C75.4707 28.1397 74.7336 27.8908 73.9753 27.8908C72.4197 27.8908 71.3278 28.9562 71.3278 30.3576C71.3278 31.7589 72.3991 32.8438 74.0363 32.8438C74.8035 32.8438 75.5213 32.5942 76.0872 32.1912V33.4294C75.4912 33.7746 74.7028 33.9475 73.9452 33.9475Z" fill="#80A460"/>
<path d="M86.047 30.3671C86.047 28.9845 84.9962 27.8906 83.5612 27.8906C82.137 27.8906 81.076 28.9845 81.076 30.3671C81.076 31.7489 82.137 32.8436 83.5612 32.8436C84.9962 32.8436 86.047 31.7489 86.047 30.3671ZM79.793 30.3671C79.793 28.3417 81.4192 26.7869 83.5612 26.7869C85.7141 26.7869 87.3307 28.3417 87.3307 30.3671C87.3307 32.3827 85.7141 33.9472 83.5612 33.9472C81.4192 33.9472 79.793 32.3827 79.793 30.3671Z" fill="#80A460"/>
<path d="M90.3809 26.8922H91.7652L93.1291 30.367C93.3716 30.9813 93.6038 31.5955 93.836 32.2293H93.8566C94.0984 31.5955 94.3415 30.9813 94.5943 30.3482L95.978 26.8922H97.2918L94.4929 33.8419H93.1894L90.3809 26.8922Z" fill="#80A460"/>
<path d="M101.082 26.8922H105.447V27.9672H102.366V29.7242H105.043V30.77H102.366V32.7571H105.548V33.8419H101.082V26.8922Z" fill="#80A460"/>
<path d="M112.225 30.0503C112.669 30.0503 112.992 30.0022 113.255 29.8293C113.528 29.6564 113.679 29.3593 113.679 29.0135C113.679 28.6391 113.517 28.3414 113.255 28.1692C112.992 27.9963 112.669 27.958 112.214 27.958H111.012V30.0503H112.225ZM109.729 26.8919H112.265C113.043 26.8919 113.629 26.9979 114.123 27.3339C114.619 27.6603 114.963 28.2264 114.963 28.9654C114.963 29.906 114.376 30.6262 113.407 30.8946L115.528 33.8417H114.043L112.053 31.0585H111.012V33.8417H109.729V26.8919Z" fill="#80A460"/>
<path d="M120.983 30.7127L118.154 26.8919H119.66L120.72 28.3707C121.024 28.7925 121.347 29.2345 121.63 29.6564H121.651C121.933 29.2345 122.236 28.812 122.56 28.3609L123.621 26.8919H125.076L122.267 30.7028V33.8417H120.983V30.7127Z" fill="#80A460"/>
<path d="M24.8126 7.60415C26.1674 7.60415 27.3592 7.84887 28.3844 8.33414C29.4104 8.82358 30.1876 9.49361 30.7218 10.3547C31.2561 11.2108 31.5233 12.2259 31.5233 13.3951C31.5233 14.4877 31.2994 15.4708 30.8459 16.35C30.7365 16.5626 30.6169 16.762 30.4833 16.9523C30.4261 17.029 30.3689 17.1064 30.3116 17.1831L34.5138 24.0116C34.5902 23.9711 34.6665 23.9216 34.7428 23.8714C36.422 22.7886 37.7767 21.411 38.821 19.7391C40.0701 17.7318 40.6954 15.4979 40.6954 13.0417C40.6954 10.5492 40.0701 8.32505 38.821 6.37638C37.5661 4.42768 35.8539 2.87849 33.6794 1.7274C31.5041 0.576309 29.0808 0.00111389 26.4147 0.00111389H19.7326L24.4119 7.60415H24.8126Z" fill="#80A460"/>
<path d="M28.6664 18.543C28.2899 18.7556 27.5259 19.1272 26.7392 19.1272H16.2556V7.60448H22.032L17.424 0.000696827L0 0L4.66973 7.57936H7.32713V31.3799L13.2364 22.5484L19.575 32.0186L23.353 26.2638L32.9971 40.9498L33.1401 40.9547L42.2837 41L28.6664 18.543Z" fill="#FEFEF2"/>
</g>
<defs>
<clipPath id="clip0_1_2611">
<rect width="170" height="41" fill="white"/>
</clipPath>
</defs>
</svg>
