<svg width="111" height="70" viewBox="0 0 111 70" fill="none" xmlns="http://www.w3.org/2000/svg">
<path d="M0.605434 19.808C0.334091 19.808 0.198419 19.7176 0.198419 19.5367C0.198419 19.3558 0.325046 19.2382 0.578299 19.1839L0.985314 19.1025C1.3471 19.0302 1.61845 18.8583 1.79934 18.587C1.98024 18.2976 2.134 17.8996 2.26063 17.3931L6.46644 0.434148C6.50262 0.253253 6.55689 0.135671 6.62925 0.0814018C6.7197 0.0271339 6.8011 0 6.87346 0C6.9639 0 7.04531 0.0271339 7.11767 0.0814018C7.20811 0.135671 7.27143 0.253253 7.30761 0.434148L11.5948 17.6373C11.7215 18.1438 11.8662 18.4965 12.029 18.6955C12.1918 18.8945 12.445 19.0302 12.7887 19.1025L13.1957 19.1839C13.449 19.2382 13.5756 19.3558 13.5756 19.5367C13.5756 19.7176 13.44 19.808 13.1686 19.808H8.52865C8.2754 19.808 8.14877 19.7085 8.14877 19.5096C8.14877 19.3106 8.30253 19.202 8.61005 19.1839L9.1256 19.1297C9.43313 19.0935 9.62306 18.994 9.69542 18.8312C9.78587 18.6684 9.78587 18.388 9.69542 17.99L8.66432 13.7842C8.55578 13.3139 8.25731 13.0787 7.76889 13.0787H4.91979C4.44946 13.0787 4.15098 13.3139 4.02435 13.7842L3.10179 17.4202C2.83045 18.4513 3.10179 19.0211 3.91582 19.1297L4.32283 19.1839C4.63035 19.2382 4.78412 19.3468 4.78412 19.5096C4.78412 19.7085 4.65749 19.808 4.40424 19.808H0.605434ZM4.83838 12.2647H7.82316C8.11259 12.2647 8.23017 12.1109 8.1759 11.8034L6.43931 4.53143H6.30364L4.48564 11.8034C4.43137 12.1109 4.54895 12.2647 4.83838 12.2647Z" fill="white"/>
<path d="M14.2883 19.808C14.017 19.808 13.8813 19.7085 13.8813 19.5096C13.8813 19.3468 13.9989 19.2382 14.2341 19.1839L14.8581 19.0754C15.4732 18.9669 15.7807 18.6141 15.7807 18.0172V2.06221C15.7807 1.68233 15.7174 1.42907 15.5908 1.30245C15.4822 1.17582 15.238 1.07633 14.8581 1.00397L14.2341 0.895432C13.9989 0.841163 13.8813 0.732625 13.8813 0.569819C13.8813 0.370835 14.017 0.271343 14.2883 0.271343H19.7695C21.1804 0.271343 22.4015 0.687402 23.4326 1.51952C24.4637 2.33355 25.2596 3.48223 25.8204 4.96558C26.3812 6.44892 26.6616 8.16742 26.6616 10.1211C26.6616 12.0928 26.3631 13.8023 25.7661 15.2495C25.1873 16.6966 24.3642 17.8182 23.2969 18.6141C22.2296 19.4101 20.9634 19.808 19.4981 19.808H14.2883ZM19.6066 19.1025C21.2166 19.1025 22.4377 18.3337 23.2698 16.7961C24.12 15.2585 24.5451 13.0335 24.5451 10.1211C24.5451 7.22677 24.1381 4.98366 23.324 3.39179C22.5281 1.78182 21.3432 0.976835 19.7695 0.976835C18.3946 0.976835 17.7072 1.6371 17.7072 2.95764V17.1217C17.7072 17.8453 17.852 18.3609 18.1414 18.6684C18.4489 18.9578 18.9373 19.1025 19.6066 19.1025Z" fill="white"/>
<path d="M34.1928 20.0794C34.1205 20.0794 34.0391 20.0522 33.9486 19.998C33.8582 19.9437 33.7948 19.8261 33.7587 19.6452L29.4715 2.44209C29.3448 1.93558 29.2001 1.58283 29.0373 1.38385C28.8926 1.18486 28.6393 1.04919 28.2775 0.976835L27.8705 0.895432C27.6173 0.841163 27.4906 0.72358 27.4906 0.542685C27.4906 0.36179 27.6263 0.271343 27.8977 0.271343H32.5376C32.7909 0.271343 32.9175 0.370835 32.9175 0.569819C32.9175 0.768805 32.7637 0.877342 32.4562 0.895432L31.9407 0.949699C31.6332 0.96779 31.4342 1.06728 31.3437 1.24818C31.2714 1.41098 31.2804 1.69137 31.3709 2.08934L34.5184 15.1409C34.5546 15.2495 34.6089 15.3037 34.6812 15.3037C34.7717 15.3037 34.826 15.2495 34.844 15.1409L37.9645 2.65916C38.2177 1.62806 37.9464 1.05824 37.1505 0.949699L36.7434 0.895432C36.4359 0.841163 36.2822 0.732625 36.2822 0.569819C36.2822 0.370835 36.4088 0.271343 36.662 0.271343H40.4608C40.7322 0.271343 40.8679 0.36179 40.8679 0.542685C40.8679 0.72358 40.7412 0.841163 40.488 0.895432L40.081 0.976835C39.7373 1.04919 39.4659 1.23009 39.2669 1.51952C39.086 1.79086 38.9323 2.17979 38.8056 2.68629L34.5998 19.6452C34.5637 19.8261 34.5003 19.9437 34.4099 19.998C34.3375 20.0522 34.2652 20.0794 34.1928 20.0794Z" fill="white"/>
<path d="M47.7723 20.0522C46.904 20.0522 46.0899 19.799 45.3302 19.2925C44.5704 18.7679 43.9011 18.0534 43.3222 17.1489C42.7615 16.2444 42.3183 15.1862 41.9927 13.9742C41.6851 12.7441 41.5314 11.4235 41.5314 10.0126C41.5314 8.60157 41.6851 7.29008 41.9927 6.07808C42.3183 4.86608 42.7615 3.80785 43.3222 2.90337C43.9011 1.9808 44.5704 1.26627 45.3302 0.75976C46.0899 0.253253 46.904 0 47.7723 0C48.6406 0 49.4455 0.253253 50.1872 0.75976C50.947 1.26627 51.6163 1.9808 52.1951 2.90337C52.774 3.80785 53.2172 4.86608 53.5247 6.07808C53.8503 7.29008 54.0131 8.60157 54.0131 10.0126C54.0131 11.4235 53.8503 12.7441 53.5247 13.9742C53.2172 15.1862 52.774 16.2444 52.1951 17.1489C51.6163 18.0534 50.947 18.7679 50.1872 19.2925C49.4455 19.799 48.6406 20.0522 47.7723 20.0522ZM47.7723 19.3196C49.0566 19.3196 50.0606 18.5508 50.7842 17.0132C51.5077 15.4756 51.8695 13.142 51.8695 10.0126C51.8695 6.88306 51.5077 4.55856 50.7842 3.03904C50.0606 1.50143 49.0566 0.732626 47.7723 0.732626C46.506 0.732626 45.502 1.50143 44.7603 3.03904C44.0368 4.55856 43.675 6.88306 43.675 10.0126C43.675 13.142 44.0368 15.4756 44.7603 17.0132C45.502 18.5508 46.506 19.3196 47.7723 19.3196Z" fill="white"/>
<path d="M63.4027 20.0522C62.0641 20.0522 60.8882 19.6362 59.8752 18.8041C58.8803 17.9719 58.1024 16.8052 57.5417 15.3037C56.999 13.7842 56.7276 11.9934 56.7276 9.93115C56.7276 7.9413 57.0261 6.20471 57.6231 4.72137C58.2381 3.21994 59.0521 2.06221 60.0652 1.24818C61.0963 0.416059 62.2359 0 63.4841 0C64.2258 0 64.877 0.0723577 65.4378 0.217073C65.9985 0.3437 66.496 0.515551 66.9301 0.732626C67.1472 0.859252 67.2558 1.04919 67.2558 1.30245L67.3372 5.42686C67.3372 5.73438 67.2286 5.88814 67.0115 5.88814C66.8126 5.88814 66.6859 5.77056 66.6317 5.5354L66.3603 4.53143C65.9804 3.12044 65.5372 2.14361 65.0307 1.60092C64.5423 1.05824 63.9544 0.786894 63.267 0.786894C62.0007 0.786894 60.9425 1.57379 60.0923 3.14758C59.2602 4.70328 58.8441 6.96447 58.8441 9.93115C58.8441 11.9572 59.0521 13.6666 59.4682 15.0595C59.9024 16.4524 60.4541 17.5016 61.1234 18.2071C61.8108 18.9126 62.5344 19.2653 63.2941 19.2653C64.1082 19.2653 64.7594 19.0121 65.2478 18.5056C65.7543 17.9991 66.1794 17.0222 66.5231 15.5751L66.8487 14.2455C66.903 13.9742 67.0477 13.8566 67.2829 13.8928C67.4819 13.9289 67.5814 14.0827 67.5814 14.354L67.4728 18.7498C67.4728 19.003 67.3552 19.193 67.1201 19.3196C66.6859 19.5367 66.1704 19.7085 65.5734 19.8352C64.9946 19.9799 64.271 20.0522 63.4027 20.0522Z" fill="white"/>
<path d="M68.8228 19.808C68.5514 19.808 68.4157 19.7176 68.4157 19.5367C68.4157 19.3558 68.5424 19.2382 68.7956 19.1839L69.2026 19.1025C69.5644 19.0302 69.8358 18.8583 70.0167 18.587C70.1976 18.2976 70.3513 17.8996 70.4779 17.3931L74.6838 0.434148C74.7199 0.253253 74.7742 0.135671 74.8466 0.0814018C74.937 0.0271339 75.0184 0 75.0908 0C75.1812 0 75.2626 0.0271339 75.335 0.0814018C75.4254 0.135671 75.4887 0.253253 75.5249 0.434148L79.8121 17.6373C79.9388 18.1438 80.0835 18.4965 80.2463 18.6955C80.4091 18.8945 80.6624 19.0302 81.0061 19.1025L81.4131 19.1839C81.6663 19.2382 81.7929 19.3558 81.7929 19.5367C81.7929 19.7176 81.6573 19.808 81.3859 19.808H76.746C76.4927 19.808 76.3661 19.7085 76.3661 19.5096C76.3661 19.3106 76.5198 19.202 76.8274 19.1839L77.3429 19.1297C77.6504 19.0935 77.8404 18.994 77.9127 18.8312C78.0032 18.6684 78.0032 18.388 77.9127 17.99L76.8816 13.7842C76.7731 13.3139 76.4746 13.0787 75.9862 13.0787H73.1371C72.6668 13.0787 72.3683 13.3139 72.2417 13.7842L71.3191 17.4202C71.0478 18.4513 71.3191 19.0211 72.1331 19.1297L72.5402 19.1839C72.8477 19.2382 73.0014 19.3468 73.0014 19.5096C73.0014 19.7085 72.8748 19.808 72.6216 19.808H68.8228ZM73.0557 12.2647H76.0405C76.3299 12.2647 76.4475 12.1109 76.3932 11.8034L74.6566 4.53143H74.521L72.703 11.8034C72.6487 12.1109 72.7663 12.2647 73.0557 12.2647Z" fill="white"/>
<path d="M94.6811 19.808C94.4098 19.808 94.2741 19.7085 94.2741 19.5096C94.2741 19.3468 94.3917 19.2382 94.6268 19.1839L95.2509 19.0754C95.6308 19.003 95.875 18.9036 95.9835 18.7769C96.1102 18.6503 96.1735 18.3971 96.1735 18.0172V2.06221C96.1735 1.68233 96.1102 1.42907 95.9835 1.30245C95.875 1.17582 95.6308 1.07633 95.2509 1.00397L94.6268 0.895432C94.3917 0.841163 94.2741 0.732625 94.2741 0.569819C94.2741 0.370835 94.4098 0.271343 94.6811 0.271343H103.798C104.214 0.271343 104.44 0.479372 104.477 0.895432L104.694 5.39972C104.73 5.70725 104.612 5.86101 104.341 5.86101C104.124 5.86101 103.997 5.74343 103.961 5.50826L103.798 4.50429C103.599 3.2742 103.192 2.37877 102.577 1.818C101.962 1.23913 101.112 0.949699 100.027 0.949699C99.303 0.949699 98.7965 1.05824 98.507 1.27531C98.2357 1.4743 98.1 1.83609 98.1 2.36068V8.90005C98.1 9.1533 98.2266 9.27993 98.4799 9.27993H99.8366C100.633 9.27993 101.121 8.85482 101.302 8.00462L101.573 6.6479C101.646 6.37656 101.799 6.25898 102.034 6.29516C102.233 6.33134 102.333 6.4851 102.333 6.75644V12.8617C102.333 13.133 102.233 13.2868 102.034 13.3229C101.799 13.3591 101.646 13.2415 101.573 12.9702L101.302 11.6406C101.175 11.0075 100.994 10.5914 100.759 10.3924C100.542 10.1934 100.226 10.094 99.8095 10.094H98.4799C98.2266 10.094 98.1 10.2206 98.1 10.4738V17.2845C98.1 17.9358 98.2628 18.4061 98.5884 18.6955C98.9321 18.985 99.5472 19.1297 100.434 19.1297C101.338 19.1297 102.107 18.9036 102.74 18.4513C103.391 17.981 103.843 17.1127 104.097 15.8464L104.422 14.2455C104.477 14.0103 104.612 13.8928 104.829 13.8928C105.083 13.8928 105.191 14.0465 105.155 14.354L104.884 19.1839C104.847 19.6 104.621 19.808 104.205 19.808H94.6811Z" fill="white"/>
<path d="M5.45399 44.9408C3.5365 44.9408 2.14361 44.3348 1.27531 43.1228C0.425104 41.9108 0 40.1562 0 37.8588C0 36.7553 0.135671 35.6066 0.407014 34.4127C0.678357 33.2188 1.06728 32.0611 1.57379 30.9395C2.09839 29.7999 2.72247 28.7778 3.44606 27.8734C4.16964 26.9689 4.98367 26.2453 5.88814 25.7026C6.81071 25.1599 7.80563 24.8886 8.87292 24.8886C10.1392 24.8886 11.2879 25.3137 12.319 26.1639C12.4999 26.3086 12.5632 26.5076 12.5089 26.7609L11.6949 30.8581C11.6406 31.1476 11.5049 31.2923 11.2879 31.2923C11.0708 31.2923 10.9623 31.1476 10.9623 30.8581L10.9351 29.7999C10.8989 28.2985 10.6819 27.2312 10.2839 26.5981C9.88593 25.9649 9.31611 25.6484 8.57444 25.6484C7.86895 25.6484 7.19059 25.9378 6.53937 26.5167C5.88814 27.0774 5.28214 27.8372 4.72137 28.7959C4.16059 29.7366 3.66313 30.7858 3.22898 31.9435C2.81292 33.0831 2.48731 34.2318 2.25215 35.3896C2.01698 36.5473 1.8994 37.6236 1.8994 38.6185C1.8994 40.2466 2.14361 41.5762 2.63203 42.6073C3.13853 43.6384 3.97065 44.1539 5.12838 44.1539C5.81578 44.1539 6.42178 43.9097 6.94638 43.4213C7.48907 42.9148 8.0408 42.0556 8.60157 40.8436L9.19853 39.5682C9.28897 39.3512 9.42465 39.2426 9.60554 39.2426C9.89497 39.2426 9.99447 39.4145 9.90402 39.7582L8.81865 43.9911C8.74629 44.2625 8.60157 44.4253 8.3845 44.4796C8.07698 44.5881 7.63378 44.6876 7.05492 44.778C6.47605 44.8866 5.94241 44.9408 5.45399 44.9408Z" fill="white"/>
<path d="M11.3315 44.6966C11.0783 44.6966 10.9517 44.6062 10.9517 44.4253C10.9517 44.2263 11.1326 44.0997 11.4943 44.0454L12.037 43.964C12.435 43.9097 12.7063 43.8193 12.8511 43.6927C13.0139 43.5479 13.1314 43.2856 13.2038 42.9058L16.8941 26.9508C16.9845 26.5709 16.9845 26.3177 16.8941 26.191C16.8036 26.0644 16.5775 25.9649 16.2157 25.8926L15.673 25.784C15.4379 25.7298 15.3203 25.6303 15.3203 25.4855C15.3203 25.2685 15.4831 25.1599 15.8087 25.1599H20.6929C20.9461 25.1599 21.0728 25.2594 21.0728 25.4584C21.0728 25.6574 20.9099 25.775 20.5843 25.8112L19.9331 25.8926C19.5351 25.9468 19.2638 26.0463 19.1191 26.191C18.9744 26.3358 18.8568 26.5981 18.7663 26.9779L17.1925 33.7886C17.1383 34.0419 17.2378 34.1685 17.491 34.1685H22.8636C23.1169 34.1685 23.2706 34.0419 23.3249 33.7886L24.8987 26.9779C24.9891 26.5981 24.9891 26.3358 24.8987 26.191C24.8082 26.0463 24.5821 25.9468 24.2203 25.8926L23.6234 25.8112C23.3701 25.7931 23.2435 25.6845 23.2435 25.4855C23.2435 25.2685 23.4153 25.1599 23.759 25.1599H28.6432C28.8965 25.1599 29.0231 25.2504 29.0231 25.4313C29.0231 25.6303 28.8422 25.7569 28.4804 25.8112L27.9377 25.8926C27.5398 25.9468 27.2684 26.0463 27.1237 26.191C26.979 26.3177 26.8614 26.5709 26.771 26.9508L23.0807 42.9058C23.0083 43.2856 23.0083 43.5389 23.0807 43.6655C23.1711 43.7922 23.3973 43.8916 23.759 43.964L24.3017 44.0725C24.5369 44.1268 24.6545 44.2263 24.6545 44.371C24.6545 44.5881 24.4917 44.6966 24.1661 44.6966H19.2819C19.0286 44.6966 18.902 44.5971 18.902 44.3982C18.902 44.1992 19.0648 44.0816 19.3904 44.0454L20.0416 43.964C20.4396 43.9097 20.711 43.8102 20.8557 43.6655C21.0185 43.5208 21.1361 43.2585 21.2084 42.8786L22.945 35.3624C22.9993 35.1092 22.9088 34.9826 22.6737 34.9826H17.3011C17.0297 34.9826 16.8669 35.1092 16.8127 35.3624L15.0761 42.8786C15.0037 43.2585 15.0037 43.5208 15.0761 43.6655C15.1665 43.8102 15.3926 43.9097 15.7544 43.964L16.3514 44.0454C16.6046 44.0635 16.7313 44.172 16.7313 44.371C16.7313 44.5881 16.5594 44.6966 16.2157 44.6966H11.3315Z" fill="white"/>
<path d="M38.1652 44.9408C37.4055 44.9408 36.7814 44.6695 36.293 44.1268C35.8226 43.5841 35.5965 42.8244 35.6146 41.8475L35.6418 38.8356C35.6598 37.8588 35.6056 37.1171 35.4789 36.6106C35.3523 36.1041 35.1171 35.7604 34.7734 35.5795C34.4297 35.3986 33.9232 35.3082 33.2539 35.3082C32.856 35.3082 32.5575 35.3805 32.3585 35.5252C32.1776 35.67 32.051 35.8961 31.9786 36.2036L30.4048 42.7972C30.3144 43.1771 30.3234 43.4394 30.432 43.5841C30.5405 43.7288 30.8209 43.8374 31.2731 43.9097L32.467 44.0725C32.7203 44.0906 32.8469 44.1901 32.8469 44.371C32.8469 44.5881 32.7022 44.6966 32.4128 44.6966H26.6603C26.407 44.6966 26.2804 44.6062 26.2804 44.4253C26.2804 44.2263 26.4613 44.0997 26.8231 44.0454L27.3658 43.964C27.7638 43.9097 28.0351 43.8193 28.1798 43.6927C28.3426 43.5479 28.4602 43.2856 28.5326 42.9058L32.2228 26.9508C32.3133 26.5709 32.3133 26.3177 32.2228 26.191C32.1324 26.0644 31.9063 25.9649 31.5445 25.8926L31.0018 25.784C30.7666 25.7298 30.649 25.6303 30.649 25.4855C30.649 25.2685 30.8118 25.1599 31.1375 25.1599H36.6457C37.713 25.1599 38.5994 25.3499 39.3049 25.7298C40.0104 26.1096 40.535 26.6161 40.8787 27.2493C41.2405 27.8824 41.4214 28.5789 41.4214 29.3386C41.4214 30.2974 41.1771 31.1657 40.6887 31.9435C40.2003 32.7214 39.5581 33.3816 38.7622 33.9243C37.9843 34.4489 37.1432 34.8378 36.2387 35.0911C36.1302 35.1092 36.0669 35.1634 36.0488 35.2539C36.0488 35.3263 36.103 35.3896 36.2116 35.4438C36.7181 35.7152 37.0618 36.0951 37.2427 36.5835C37.4236 37.0719 37.514 37.7231 37.514 38.5371V41.3048C37.514 42.2998 37.6226 42.9872 37.8396 43.3671C38.0567 43.7288 38.3552 43.9097 38.7351 43.9097C38.8798 43.9097 39.0064 43.8916 39.1149 43.8555C39.2235 43.8012 39.3682 43.7108 39.5491 43.5841C39.6938 43.4575 39.8204 43.4213 39.929 43.4756C40.0556 43.5299 40.1189 43.6293 40.1189 43.7741C40.1189 44.0273 39.929 44.2896 39.5491 44.561C39.1692 44.8142 38.7079 44.9408 38.1652 44.9408ZM34.2036 34.6298C35.1081 34.6298 35.9583 34.3856 36.7543 33.8972C37.5502 33.4088 38.1924 32.7485 38.6808 31.9164C39.1873 31.0843 39.4405 30.1526 39.4405 29.1215C39.4405 28.1085 39.1873 27.3126 38.6808 26.7337C38.1924 26.1368 37.3331 25.8383 36.103 25.8383C34.9453 25.8383 34.276 26.2001 34.0951 26.9237L32.657 33.1374C32.4218 34.1323 32.9374 34.6298 34.2036 34.6298Z" fill="white"/>
<path d="M41.1411 44.6966C40.8879 44.6966 40.7612 44.6062 40.7612 44.4253C40.7612 44.2263 40.9421 44.0997 41.3039 44.0454L41.8466 43.964C42.2446 43.9097 42.5159 43.8193 42.6606 43.6927C42.8234 43.5479 42.941 43.2856 43.0134 42.9058L46.7036 26.9508C46.7941 26.5709 46.7941 26.3177 46.7036 26.191C46.6132 26.0644 46.3871 25.9649 46.0253 25.8926L45.4826 25.784C45.2474 25.7298 45.1298 25.6303 45.1298 25.4855C45.1298 25.2685 45.2926 25.1599 45.6183 25.1599H50.4482C50.7014 25.1599 50.828 25.2504 50.828 25.4313C50.828 25.6303 50.6472 25.7569 50.2854 25.8112L49.7427 25.8926C49.3447 25.9468 49.0734 26.0463 48.9286 26.191C48.7839 26.3177 48.6663 26.5709 48.5759 26.9508L44.8856 42.9058C44.8133 43.2856 44.8133 43.5389 44.8856 43.6655C44.9761 43.7922 45.2022 43.8916 45.564 43.964L46.1067 44.0725C46.3418 44.1268 46.4594 44.2263 46.4594 44.371C46.4594 44.5881 46.2966 44.6966 45.971 44.6966H41.1411Z" fill="white"/>
<path d="M53.7585 44.9408C53.252 44.9408 52.7094 44.8866 52.1305 44.778C51.5697 44.6695 51.0361 44.5248 50.5296 44.3439C50.0412 44.1449 49.6522 43.9188 49.3628 43.6655C49.2723 43.5751 49.209 43.4846 49.1729 43.3942C49.1548 43.3037 49.1638 43.1681 49.2 42.9872L49.9597 38.7271C50.014 38.4015 50.1587 38.2387 50.3939 38.2387C50.611 38.2387 50.7195 38.4196 50.7195 38.7814L50.7466 39.8396C50.7828 41.3591 51.0451 42.4535 51.5335 43.1228C52.022 43.7922 52.8179 44.1268 53.9214 44.1268C54.9344 44.1268 55.7755 43.765 56.4448 43.0414C57.1142 42.2998 57.4488 41.3139 57.4488 40.0838C57.4488 39.2879 57.2317 38.4557 56.7976 37.5874C56.3634 36.7191 55.7574 35.8508 54.9796 34.9826C54.057 33.9515 53.3696 33.0108 52.9174 32.1606C52.4832 31.3104 52.2662 30.4149 52.2662 29.4743C52.2662 28.7326 52.4471 28.0181 52.8088 27.3307C53.1706 26.6252 53.7133 26.0463 54.4369 25.5941C55.1786 25.1238 56.1192 24.8886 57.2589 24.8886C58.8327 24.8886 60.0356 25.2413 60.8677 25.9468C61.121 26.1458 61.2114 26.4443 61.1391 26.8423L60.3793 30.8039C60.3251 31.0752 60.1984 31.2109 59.9994 31.2109C59.8005 31.2109 59.6829 31.0571 59.6467 30.7496L59.6196 30.1798C59.5472 28.7145 59.3392 27.602 58.9955 26.8423C58.6699 26.0644 58.0096 25.6755 57.0147 25.6755C56.2911 25.6755 55.7122 25.8383 55.2781 26.1639C54.8439 26.4895 54.5274 26.8965 54.3284 27.3849C54.1294 27.8553 54.0299 28.3256 54.0299 28.7959C54.0299 29.3205 54.1023 29.827 54.247 30.3155C54.3917 30.7858 54.6359 31.2923 54.9796 31.835C55.3414 32.3596 55.8298 33.0017 56.4448 33.7615C57.3131 34.7926 57.9915 35.7785 58.4799 36.7191C58.9683 37.6598 59.2125 38.5733 59.2125 39.4597C59.2125 40.527 58.9683 41.4767 58.4799 42.3088C58.0096 43.1228 57.3674 43.765 56.5534 44.2353C55.7394 44.7057 54.8077 44.9408 53.7585 44.9408Z" fill="white"/>
<path d="M62.659 44.6966C62.4058 44.6966 62.2791 44.6062 62.2791 44.4253C62.2791 44.2444 62.4239 44.1268 62.7133 44.0725L63.8529 43.8826C64.2147 43.8283 64.4861 43.7379 64.667 43.6113C64.8479 43.4665 64.9745 43.2042 65.0468 42.8244L68.8185 26.5438C68.8728 26.2905 68.8456 26.1096 68.7371 26.0011C68.6467 25.8926 68.4296 25.8383 68.0859 25.8383C67.4708 25.8383 66.7925 26.0915 66.0508 26.5981C65.3272 27.0865 64.676 28.009 64.0971 29.3658L63.663 30.3969C63.5725 30.632 63.4188 30.7496 63.2017 30.7496C62.9485 30.7496 62.8671 30.5958 62.9575 30.2883L64.3142 25.377C64.4227 24.961 64.6217 24.7529 64.9112 24.7529C65.074 24.7529 65.2006 24.7891 65.291 24.8615C65.3996 24.9157 65.5714 24.979 65.8066 25.0514C66.0418 25.1238 66.4488 25.1599 67.0276 25.1599H73.0786C73.6575 25.1599 74.0826 25.1238 74.3539 25.0514C74.6433 24.979 74.8514 24.9157 74.978 24.8615C75.1227 24.7891 75.2493 24.7529 75.3579 24.7529C75.6654 24.7529 75.7739 24.961 75.6835 25.377L74.8152 30.2883C74.7609 30.5958 74.6072 30.7496 74.3539 30.7496C74.1187 30.7496 74.0192 30.632 74.0554 30.3969L74.1097 29.7185C74.2182 28.3799 74.0464 27.403 73.5941 26.788C73.1419 26.1549 72.5088 25.8383 71.6947 25.8383C71.351 25.8383 71.1068 25.8926 70.9621 26.0011C70.8355 26.1096 70.745 26.2905 70.6908 26.5438L66.9191 42.8244C66.8287 43.2042 66.8377 43.4665 66.9462 43.6113C67.0729 43.7379 67.308 43.8283 67.6517 43.8826L68.927 44.0725C69.126 44.0906 69.2255 44.1901 69.2255 44.371C69.2255 44.5881 69.0808 44.6966 68.7914 44.6966H62.659Z" fill="white"/>
<path d="M73.3482 44.6966C73.095 44.6966 72.9684 44.6062 72.9684 44.4253C72.9684 44.2263 73.1493 44.0997 73.511 44.0454L74.0537 43.964C74.4517 43.9097 74.723 43.8193 74.8678 43.6927C75.0306 43.5479 75.1481 43.2856 75.2205 42.9058L78.9108 26.9508C79.0012 26.5709 79.0012 26.3177 78.9108 26.191C78.8203 26.0644 78.5942 25.9649 78.2324 25.8926L77.6897 25.784C77.4546 25.7298 77.337 25.6303 77.337 25.4855C77.337 25.2685 77.4998 25.1599 77.8254 25.1599H82.6553C82.9086 25.1599 83.0352 25.2504 83.0352 25.4313C83.0352 25.6303 82.8543 25.7569 82.4925 25.8112L81.9498 25.8926C81.5518 25.9468 81.2805 26.0463 81.1358 26.191C80.9911 26.3177 80.8735 26.5709 80.783 26.9508L77.0928 42.9058C77.0204 43.2856 77.0204 43.5389 77.0928 43.6655C77.1832 43.7922 77.4093 43.8916 77.7711 43.964L78.3138 44.0725C78.549 44.1268 78.6666 44.2263 78.6666 44.371C78.6666 44.5881 78.5038 44.6966 78.1781 44.6966H73.3482Z" fill="white"/>
<path d="M79.3241 44.6966C79.1071 44.6966 78.9985 44.6062 78.9985 44.4253C78.9985 44.2625 79.1432 44.1449 79.4327 44.0725L79.8668 43.9911C80.2286 43.9188 80.5452 43.7469 80.8165 43.4756C81.0698 43.1862 81.314 42.7882 81.5492 42.2817L89.6623 25.3227C89.7528 25.1418 89.8432 25.0243 89.9337 24.97C90.0241 24.9157 90.1055 24.8886 90.1779 24.8886C90.2683 24.8886 90.3407 24.9157 90.3949 24.97C90.4673 25.0243 90.5035 25.1418 90.5035 25.3227L90.802 42.5259C90.82 43.0324 90.8834 43.3851 90.9919 43.5841C91.1004 43.765 91.3266 43.9007 91.6703 43.9911L92.023 44.0725C92.2401 44.1268 92.3486 44.2353 92.3486 44.3982C92.3486 44.5971 92.1949 44.6966 91.8873 44.6966H87.4102C87.175 44.6966 87.0574 44.6062 87.0574 44.4253C87.0574 44.2263 87.2383 44.1087 87.6001 44.0725L88.1428 44.0183C88.4503 43.9821 88.6583 43.8826 88.7669 43.7198C88.8935 43.557 88.9568 43.2766 88.9568 42.8786L88.9026 38.6728C88.9026 38.2025 88.6583 37.9673 88.1699 37.9673H85.2666C84.7962 37.9673 84.4435 38.2025 84.2083 38.6728L82.4446 42.3088C81.9562 43.3399 82.119 43.9097 82.933 44.0183L83.3129 44.0725C83.5842 44.1087 83.7199 44.2173 83.7199 44.3982C83.7199 44.5971 83.5661 44.6966 83.2586 44.6966H79.3241ZM85.3751 37.1533H88.4141C88.7217 37.1533 88.8754 36.9995 88.8754 36.692L88.8212 29.2843H88.6855L85.1309 36.692C85.0585 36.8186 85.0495 36.9272 85.1038 37.0176C85.158 37.1081 85.2485 37.1533 85.3751 37.1533Z" fill="white"/>
<path d="M103.675 44.9408C103.439 44.9408 103.286 44.7961 103.213 44.5067L99.2517 28.3346C99.2337 28.2442 99.1884 28.199 99.1161 28.199C99.0437 28.199 98.9894 28.2442 98.9533 28.3346L95.7243 42.3631C95.5977 42.8696 95.5886 43.2585 95.6972 43.5299C95.8238 43.7831 96.1042 43.9459 96.5383 44.0183L96.8639 44.0725C97.0991 44.0906 97.1986 44.1992 97.1624 44.3982C97.1081 44.5971 96.9453 44.6966 96.674 44.6966H92.7938C92.5224 44.6966 92.4139 44.5971 92.4682 44.3982C92.5043 44.1992 92.64 44.0906 92.8752 44.0725L93.2551 44.0183C93.7435 43.9459 94.1053 43.7831 94.3404 43.5299C94.5756 43.2585 94.7565 42.8696 94.8831 42.3631L98.4377 26.9508C98.5282 26.5709 98.5282 26.3177 98.4377 26.191C98.3473 26.0644 98.1031 25.9649 97.7051 25.8926L97.1081 25.784C96.873 25.7298 96.7825 25.6212 96.8368 25.4584C96.873 25.2594 97.0267 25.1599 97.2981 25.1599H99.9301C100.382 25.1599 100.654 25.3589 100.744 25.7569L104.163 39.8125C104.199 39.9391 104.253 40.0024 104.326 40.0024C104.416 40.0024 104.471 39.9391 104.489 39.8125L107.338 27.4935C107.482 26.9146 107.482 26.5167 107.338 26.2996C107.193 26.0644 106.967 25.9197 106.659 25.8654L106.198 25.784C105.963 25.7298 105.873 25.6212 105.927 25.4584C105.963 25.2594 106.117 25.1599 106.388 25.1599H110.268C110.54 25.1599 110.657 25.2594 110.621 25.4584C110.549 25.6574 110.404 25.7659 110.187 25.784L109.807 25.8383C109.319 25.9107 108.957 26.0644 108.722 26.2996C108.505 26.5167 108.324 26.9146 108.179 27.4935L104.299 44.3439C104.208 44.7419 104 44.9408 103.675 44.9408Z" fill="white"/>
<path d="M5.4541 69.4595C5.18275 69.4595 5.04708 69.3691 5.04708 69.1882C5.04708 69.0073 5.17371 68.8897 5.42696 68.8354L5.83398 68.754C6.19577 68.6817 6.46711 68.5098 6.64801 68.2385C6.8289 67.9491 6.98266 67.5511 7.10929 67.0446L11.3151 50.0856C11.3513 49.9047 11.4056 49.7872 11.4779 49.7329C11.5684 49.6786 11.6498 49.6515 11.7221 49.6515C11.8126 49.6515 11.894 49.6786 11.9663 49.7329C12.0568 49.7872 12.1201 49.9047 12.1563 50.0856L16.4435 67.2888C16.5701 67.7953 16.7148 68.148 16.8776 68.347C17.0404 68.546 17.2937 68.6817 17.6374 68.754L18.0444 68.8354C18.2977 68.8897 18.4243 69.0073 18.4243 69.1882C18.4243 69.3691 18.2886 69.4595 18.0173 69.4595H13.3773C13.1241 69.4595 12.9974 69.36 12.9974 69.161C12.9974 68.9621 13.1512 68.8535 13.4587 68.8354L13.9743 68.7812C14.2818 68.745 14.4717 68.6455 14.5441 68.4827C14.6345 68.3199 14.6345 68.0395 14.5441 67.6415L13.513 63.4357C13.4044 62.9654 13.106 62.7302 12.6176 62.7302H9.76845C9.29812 62.7302 8.99965 62.9654 8.87302 63.4357L7.95045 67.0717C7.67911 68.1028 7.95045 68.6726 8.76448 68.7812L9.1715 68.8354C9.47902 68.8897 9.63278 68.9982 9.63278 69.161C9.63278 69.36 9.50615 69.4595 9.2529 69.4595H5.4541ZM9.68705 61.9162H12.6718C12.9613 61.9162 13.0788 61.7624 13.0246 61.4549L11.288 54.1829H11.1523L9.3343 61.4549C9.28003 61.7624 9.39761 61.9162 9.68705 61.9162Z" fill="white"/>
<path d="M25.3124 69.7037C23.9738 69.7037 22.7979 69.2877 21.7849 68.4555C20.79 67.6234 20.0121 66.4567 19.4514 64.9552C18.9087 63.4357 18.6373 61.6448 18.6373 59.5826C18.6373 57.5928 18.9358 55.8562 19.5328 54.3729C20.1478 52.8714 20.9618 51.7137 21.9749 50.8997C23.006 50.0676 24.1456 49.6515 25.3938 49.6515C26.1355 49.6515 26.7867 49.7238 27.3474 49.8686C27.9082 49.9952 28.4057 50.167 28.8398 50.3841C29.0569 50.5107 29.1654 50.7007 29.1654 50.9539L29.2468 55.0783C29.2468 55.3859 29.1383 55.5396 28.9212 55.5396C28.7223 55.5396 28.5956 55.4221 28.5414 55.1869L28.27 54.1829C27.8901 52.7719 27.4469 51.7951 26.9404 51.2524C26.452 50.7097 25.8641 50.4384 25.1767 50.4384C23.9104 50.4384 22.8522 51.2253 22.002 52.7991C21.1699 54.3548 20.7538 56.616 20.7538 59.5826C20.7538 61.6087 20.9618 63.3181 21.3779 64.711C21.8121 66.1039 22.3638 67.1531 23.0331 67.8586C23.7205 68.5641 24.4441 68.9168 25.2038 68.9168C26.0179 68.9168 26.6691 68.6636 27.1575 68.1571C27.664 67.6506 28.0891 66.6737 28.4328 65.2266L28.7584 63.897C28.8127 63.6257 28.9574 63.5081 29.1926 63.5442C29.3916 63.5804 29.4911 63.7342 29.4911 64.0055L29.3825 68.4013C29.3825 68.6545 29.2649 68.8445 29.0298 68.9711C28.5956 69.1882 28.0801 69.36 27.4831 69.4867C26.9043 69.6314 26.1807 69.7037 25.3124 69.7037Z" fill="white"/>
<path d="M30.7324 69.4595C30.4611 69.4595 30.3254 69.3691 30.3254 69.1882C30.3254 69.0073 30.4521 68.8897 30.7053 68.8354L31.1123 68.754C31.4741 68.6817 31.7455 68.5098 31.9264 68.2385C32.1073 67.9491 32.261 67.5511 32.3876 67.0446L36.5935 50.0856C36.6296 49.9047 36.6839 49.7872 36.7563 49.7329C36.8467 49.6786 36.9281 49.6515 37.0005 49.6515C37.0909 49.6515 37.1723 49.6786 37.2447 49.7329C37.3351 49.7872 37.3984 49.9047 37.4346 50.0856L41.7218 67.2888C41.8485 67.7953 41.9932 68.148 42.156 68.347C42.3188 68.546 42.572 68.6817 42.9157 68.754L43.3228 68.8354C43.576 68.8897 43.7026 69.0073 43.7026 69.1882C43.7026 69.3691 43.567 69.4595 43.2956 69.4595H38.6557C38.4024 69.4595 38.2758 69.36 38.2758 69.161C38.2758 68.9621 38.4295 68.8535 38.7371 68.8354L39.2526 68.7812C39.5601 68.745 39.7501 68.6455 39.8224 68.4827C39.9129 68.3199 39.9129 68.0395 39.8224 67.6415L38.7913 63.4357C38.6828 62.9654 38.3843 62.7302 37.8959 62.7302H35.0468C34.5765 62.7302 34.278 62.9654 34.1514 63.4357L33.2288 67.0717C32.9575 68.1028 33.2288 68.6726 34.0428 68.7812L34.4498 68.8354C34.7574 68.8897 34.9111 68.9982 34.9111 69.161C34.9111 69.36 34.7845 69.4595 34.5313 69.4595H30.7324ZM34.9654 61.9162H37.9502C38.2396 61.9162 38.3572 61.7624 38.3029 61.4549L36.5663 54.1829H36.4306L34.6127 61.4549C34.5584 61.7624 34.676 61.9162 34.9654 61.9162Z" fill="white"/>
<path d="M44.4153 69.4595C44.144 69.4595 44.0083 69.36 44.0083 69.161C44.0083 68.9982 44.1259 68.8897 44.3611 68.8354L44.9852 68.7269C45.6002 68.6184 45.9077 68.2656 45.9077 67.6687V51.7137C45.9077 51.3338 45.8444 51.0806 45.7178 50.9539C45.6093 50.8273 45.365 50.7278 44.9852 50.6555L44.3611 50.5469C44.1259 50.4926 44.0083 50.3841 44.0083 50.2213C44.0083 50.0223 44.144 49.9228 44.4153 49.9228H49.8965C51.3075 49.9228 52.5285 50.3389 53.5596 51.171C54.5907 51.985 55.3866 53.1337 55.9474 54.6171C56.5082 56.1004 56.7886 57.8189 56.7886 59.7726C56.7886 61.7443 56.4901 63.4538 55.8932 64.901C55.3143 66.3481 54.4912 67.4697 53.4239 68.2656C52.3566 69.0615 51.0904 69.4595 49.6251 69.4595H44.4153ZM49.7337 68.754C51.3436 68.754 52.5647 67.9852 53.3968 66.4476C54.247 64.91 54.6721 62.685 54.6721 59.7726C54.6721 56.8783 54.2651 54.6352 53.4511 53.0433C52.6551 51.4333 51.4703 50.6283 49.8965 50.6283C48.5217 50.6283 47.8343 51.2886 47.8343 52.6091V66.7732C47.8343 67.4968 47.979 68.0124 48.2684 68.3199C48.5759 68.6093 49.0644 68.754 49.7337 68.754Z" fill="white"/>
<path d="M59.0816 69.4595C58.8103 69.4595 58.6746 69.36 58.6746 69.161C58.6746 68.9982 58.7922 68.8897 59.0274 68.8354L59.6515 68.7269C60.0313 68.6545 60.2756 68.555 60.3841 68.4284C60.5107 68.3018 60.574 68.0485 60.574 67.6687V51.7137C60.574 51.3338 60.5107 51.0806 60.3841 50.9539C60.2756 50.8273 60.0313 50.7278 59.6515 50.6555L59.0274 50.5469C58.7922 50.4926 58.6746 50.3841 58.6746 50.2213C58.6746 50.0223 58.8103 49.9228 59.0816 49.9228H68.1988C68.6148 49.9228 68.8409 50.1309 68.8771 50.5469L69.0942 55.0512C69.1304 55.3587 69.0128 55.5125 68.7414 55.5125C68.5244 55.5125 68.3978 55.3949 68.3616 55.1597L68.1988 54.1558C67.9998 52.9257 67.5928 52.0303 66.9777 51.4695C66.3627 50.8906 65.5125 50.6012 64.4271 50.6012C63.7035 50.6012 63.197 50.7097 62.9076 50.9268C62.6362 51.1258 62.5006 51.4876 62.5006 52.0122V58.5515C62.5006 58.8048 62.6272 58.9314 62.8804 58.9314H64.2372C65.0331 58.9314 65.5215 58.5063 65.7024 57.6561L65.9738 56.2994C66.0461 56.028 66.1999 55.9105 66.435 55.9466C66.634 55.9828 66.7335 56.1366 66.7335 56.4079V62.5131C66.7335 62.7845 66.634 62.9382 66.435 62.9744C66.1999 63.0106 66.0461 62.893 65.9738 62.6217L65.7024 61.2921C65.5758 60.659 65.3949 60.2429 65.1597 60.0439C64.9426 59.8449 64.6261 59.7454 64.21 59.7454H62.8804C62.6272 59.7454 62.5006 59.8721 62.5006 60.1253V66.936C62.5006 67.5872 62.6634 68.0576 62.989 68.347C63.3327 68.6364 63.9477 68.7812 64.8341 68.7812C65.7386 68.7812 66.5074 68.555 67.1405 68.1028C67.7918 67.6325 68.244 66.7642 68.4972 65.4979L68.8229 63.897C68.8771 63.6618 69.0128 63.5442 69.2299 63.5442C69.4831 63.5442 69.5917 63.698 69.5555 64.0055L69.2841 68.8354C69.248 69.2515 69.0218 69.4595 68.6058 69.4595H59.0816Z" fill="white"/>
<path d="M79.5443 69.1882C79.4719 69.1882 79.3905 69.161 79.3001 69.1068C79.2096 69.0525 79.1463 68.9349 79.1101 68.754L75.0129 52.1207C74.9948 51.9941 74.9405 51.9398 74.8501 51.9579C74.7596 51.9579 74.7144 52.0212 74.7144 52.1478L74.1717 67.126C74.1536 67.6325 74.235 68.0214 74.4159 68.2927C74.5968 68.546 74.9134 68.7088 75.3656 68.7812L75.7184 68.8354C75.9535 68.8535 76.0711 68.9621 76.0711 69.161C76.0711 69.36 75.9354 69.4595 75.6641 69.4595H71.7839C71.5125 69.4595 71.3769 69.36 71.3769 69.161C71.3769 68.9621 71.4944 68.8535 71.7296 68.8354L72.0824 68.7812C72.5527 68.7088 72.8693 68.546 73.0321 68.2927C73.213 68.0214 73.3124 67.6325 73.3305 67.126L73.8732 51.7137C73.8913 51.3338 73.837 51.0806 73.7104 50.9539C73.5838 50.8273 73.3124 50.7278 72.8964 50.6555L72.2723 50.5469C72.0371 50.4926 71.9195 50.3841 71.9195 50.2213C71.9195 50.0223 72.0552 49.9228 72.3266 49.9228H75.5827C76.1435 49.9228 76.4872 50.1942 76.6138 50.7369L79.897 64.2769C79.9332 64.4035 79.9875 64.4668 80.0598 64.4668C80.1503 64.4668 80.2046 64.4035 80.2226 64.2769L83.6416 50.6012C83.7501 50.1489 84.0395 49.9228 84.5099 49.9228H87.7117C87.9831 49.9228 88.1187 50.0223 88.1187 50.2213C88.1187 50.3841 88.0011 50.4926 87.766 50.5469L87.1419 50.6555C86.762 50.7278 86.5088 50.8273 86.3821 50.9539C86.2555 51.0806 86.2012 51.3338 86.2193 51.7137L86.762 67.6687C86.7801 68.0485 86.8434 68.3018 86.952 68.4284C87.0605 68.555 87.3047 68.6545 87.6846 68.7269L88.3087 68.8354C88.5438 68.8897 88.6614 68.9982 88.6614 69.161C88.6614 69.36 88.5257 69.4595 88.2544 69.4595H83.3431C83.0717 69.4595 82.9361 69.36 82.9361 69.161C82.9361 68.9982 83.0537 68.8897 83.2888 68.8354L83.9129 68.7269C84.2928 68.6545 84.546 68.555 84.6727 68.4284C84.7993 68.3018 84.8536 68.0485 84.8355 67.6687L84.3742 52.1478C84.3742 52.0212 84.329 51.9579 84.2385 51.9579C84.1662 51.9398 84.1119 51.985 84.0757 52.0936L79.9513 68.754C79.9151 68.9349 79.8518 69.0525 79.7614 69.1068C79.689 69.161 79.6166 69.1882 79.5443 69.1882Z" fill="white"/>
<path d="M84.5594 19.8081C84.288 19.8081 84.1523 19.7086 84.1523 19.5096C84.1523 19.3468 84.2699 19.2382 84.5051 19.184L85.1292 19.0754C85.5091 19.0031 85.7533 18.9036 85.8618 18.777C85.9884 18.6503 86.0517 18.3971 86.0517 18.0172V2.06223C86.0517 1.68235 85.9884 1.42909 85.8618 1.30247C85.7533 1.17584 85.5091 1.07635 85.1292 1.00399L84.5051 0.895451C84.2699 0.841182 84.1523 0.732645 84.1523 0.569839C84.1523 0.370855 84.288 0.271362 84.5594 0.271362H89.4707C89.742 0.271362 89.8777 0.370855 89.8777 0.569839C89.8777 0.732645 89.7601 0.841182 89.5249 0.895451L88.9008 1.00399C88.521 1.07635 88.2677 1.17584 88.1411 1.30247C88.0325 1.42909 87.9783 1.68235 87.9783 2.06223V18.0172C87.9783 18.3971 88.0325 18.6503 88.1411 18.777C88.2677 18.9036 88.521 19.0031 88.9008 19.0754L89.5249 19.184C89.7601 19.2382 89.8777 19.3468 89.8777 19.5096C89.8777 19.7086 89.742 19.8081 89.4707 19.8081H84.5594Z" fill="#FCA311"/>
<path d="M84.5594 19.8081C84.288 19.8081 84.1523 19.7086 84.1523 19.5096C84.1523 19.3468 84.2699 19.2382 84.5051 19.184L85.1292 19.0754C85.5091 19.0031 85.7533 18.9036 85.8618 18.777C85.9884 18.6503 86.0517 18.3971 86.0517 18.0172V2.06223C86.0517 1.68235 85.9884 1.42909 85.8618 1.30247C85.7533 1.17584 85.5091 1.07635 85.1292 1.00399L84.5051 0.895451C84.2699 0.841182 84.1523 0.732645 84.1523 0.569839C84.1523 0.370855 84.288 0.271362 84.5594 0.271362H89.4707C89.742 0.271362 89.8777 0.370855 89.8777 0.569839C89.8777 0.732645 89.7601 0.841182 89.5249 0.895451L88.9008 1.00399C88.521 1.07635 88.2677 1.17584 88.1411 1.30247C88.0325 1.42909 87.9783 1.68235 87.9783 2.06223V18.0172C87.9783 18.3971 88.0325 18.6503 88.1411 18.777C88.2677 18.9036 88.521 19.0031 88.9008 19.0754L89.5249 19.184C89.7601 19.2382 89.8777 19.3468 89.8777 19.5096C89.8777 19.7086 89.742 19.8081 89.4707 19.8081H84.5594Z" fill="#FCA311"/>
<path d="M92.765 7.90548C92.765 8.17683 92.6655 8.3125 92.4666 8.3125C92.3037 8.3125 92.1952 8.19492 92.1409 7.95975L92.0324 7.33566C91.96 6.95578 91.8606 6.71158 91.7339 6.60304C91.6073 6.47641 91.354 6.4131 90.9742 6.4131L83.0233 6.4131C82.6434 6.4131 82.3902 6.47641 82.2635 6.60304C82.1369 6.71158 82.0374 6.95579 81.965 7.33567L81.8565 7.95975C81.8022 8.19492 81.6937 8.3125 81.5309 8.3125C81.3319 8.3125 81.2324 8.17683 81.2324 7.90549L81.2324 2.99418C81.2324 2.72284 81.3319 2.58717 81.5309 2.58717C81.6937 2.58717 81.8022 2.70475 81.8565 2.93991L81.965 3.564C82.0374 3.94388 82.1369 4.19713 82.2635 4.32376C82.3902 4.43229 82.6434 4.48656 83.0233 4.48656L90.9742 4.48656C91.354 4.48656 91.6073 4.43229 91.7339 4.32376C91.8606 4.19713 91.96 3.94388 92.0324 3.564L92.1409 2.93991C92.1952 2.70474 92.3037 2.58716 92.4666 2.58716C92.6655 2.58716 92.765 2.72283 92.765 2.99418L92.765 7.90548Z" fill="#FCA311"/>
<path d="M94.6362 69.0092L94.6376 69.0101C95.0815 69.292 95.559 69.4338 96.0684 69.4338C96.5779 69.4338 97.0507 69.2919 97.4849 69.0095L97.4853 69.0092C97.9264 68.7191 98.3129 68.3252 98.6458 67.8299C98.9791 67.3336 99.2332 66.7549 99.4091 66.0949C99.5953 65.4246 99.688 64.7063 99.688 63.9404C99.688 63.1746 99.5953 62.461 99.409 61.8003C99.2332 61.1406 98.9793 60.562 98.646 60.0659C98.4779 59.8107 98.2632 59.5689 98.0594 59.3521C97.9965 59.2852 97.935 59.2211 97.8762 59.1597C97.7417 59.0194 97.621 58.8935 97.5282 58.7813L97.5184 58.7695L97.5057 58.7612C97.3918 58.6871 97.2719 58.6604 97.1632 58.6429C97.1415 58.6394 97.1205 58.6363 97.1001 58.6333L97.6294 58.3065L97.7105 58.2564L97.6643 58.1729L97.4129 57.7193L97.3469 57.6003L97.253 57.6989L97.253 57.6989L97.253 57.6989L97.253 57.6989L97.2529 57.699L97.2522 57.6997L97.2496 57.7025L97.2387 57.7136C97.2291 57.7234 97.215 57.7377 97.1971 57.7553C97.1614 57.7906 97.1107 57.8392 97.0515 57.8923C96.9312 58 96.7817 58.1206 96.6504 58.1896C96.5387 58.2482 96.3925 58.2885 96.2692 58.3141C96.2085 58.3267 96.1553 58.3354 96.1173 58.341C96.1007 58.3434 96.0871 58.3452 96.0771 58.3465L96.07 58.3444L96.043 58.3515L96.054 58.3932L96.054 58.3932L96.043 58.3515L96.0429 58.3515L96.0428 58.3515L96.0422 58.3517L96.04 58.3522L96.0317 58.3545L96.0003 58.363C95.9732 58.3704 95.934 58.3814 95.8857 58.3953C95.7892 58.4232 95.6559 58.4633 95.509 58.512C95.2184 58.6083 94.8633 58.7419 94.6376 58.8853C94.1953 59.1662 93.8082 59.5608 93.4753 60.0663L93.475 60.0667C93.1524 60.5624 92.8987 61.1404 92.7127 61.7996L92.7127 61.7996L92.7123 61.801C92.5364 62.4615 92.4488 63.1748 92.4488 63.9404C92.4488 64.706 92.5364 65.424 92.7122 66.094L92.7122 66.094L92.7127 66.0957C92.8987 66.755 93.1524 67.333 93.475 67.8286L93.475 67.8286L93.4758 67.8299C93.8086 68.3252 94.1952 68.7191 94.6362 69.0092ZM97.6774 60.2385L97.6776 60.2389C98.0751 61.034 98.2791 62.2638 98.2791 63.9404C98.2791 65.6169 98.0751 66.8518 97.6774 67.6569C97.2807 68.4599 96.7438 68.8402 96.0684 68.8402C95.4037 68.8402 94.8665 68.4603 94.4593 67.6565C94.0617 66.8514 93.8577 65.6166 93.8577 63.9404C93.8577 62.2639 94.0618 61.0342 94.4592 60.2391C94.8663 59.4351 95.4036 59.0551 96.0684 59.0551C96.7438 59.0551 97.2807 59.4355 97.6774 60.2385Z" fill="#FCA311" stroke="#FCA311" stroke-width="0.2"/>
<path fill-rule="evenodd" clip-rule="evenodd" d="M90.0391 51.719L94.0279 59.8135L95.3774 58.4984L92.1556 51.7978C91.9747 51.4299 91.9476 51.1583 92.0742 50.9831C92.2008 50.8079 92.4179 50.7115 92.7254 50.694L93.241 50.6415C93.5485 50.6239 93.7022 50.5188 93.7022 50.3261C93.7022 50.1334 93.5756 50.037 93.3224 50.037H88.6824C88.4111 50.037 88.2754 50.1246 88.2754 50.2998C88.2754 50.475 88.402 50.5889 88.6553 50.6415L88.8995 50.694C89.207 50.7641 89.4422 50.878 89.605 51.0357C89.7678 51.1934 89.9125 51.4211 90.0391 51.719Z" fill="#FCA311"/>
<path d="M95.815 58.6202C95.7052 58.6202 95.4493 58.6202 95.3774 58.4984L94.0279 59.8135L96.0042 58.6353C95.9439 58.6387 95.8769 58.6202 95.8174 58.6202H95.815Z" fill="#FCA311"/>
<path fill-rule="evenodd" clip-rule="evenodd" d="M99.8998 52.2887L96.6979 58.6224L97.4523 58.7417L100.795 52.315C101.103 51.7368 101.347 51.325 101.528 51.0798C101.727 50.8345 101.953 50.6855 102.206 50.633L102.478 50.5804C102.731 50.5279 102.857 50.414 102.857 50.2388C102.857 50.0636 102.722 49.976 102.45 49.976H98.5973C98.3441 49.976 98.2174 50.0723 98.2174 50.265C98.2174 50.4227 98.3712 50.5279 98.6787 50.5804L99.2757 50.6593C99.6917 50.7118 99.954 50.887 100.063 51.1849C100.189 51.4652 100.135 51.8331 99.8998 52.2887Z" fill="#FCA311"/>
<path d="M96.4667 58.8672C96.426 58.8672 96.3879 58.8586 96.3523 58.8414L98.1437 60.081C97.7666 59.6549 97.5152 59.2896 97.4523 58.7417L96.6979 58.6224C96.6256 58.7451 96.5752 58.8672 96.4667 58.8672Z" fill="#FCA311"/>
</svg>
